# Blender v3.0.1 OBJ File: ''
# www.blender.org
mtllib monkey.mtl
o Suzanne
v 0.546875 0.054688 0.578125
v -0.546875 0.054688 0.578125
v -0.348823 -0.039891 0.626154
v 0.348823 -0.039891 0.626154
v 0.243436 0.183277 0.809088
v 0.156250 0.054688 0.648438
v -0.156250 0.054688 0.648438
v -0.066086 0.241075 0.663968
v 0.065623 0.241473 0.664332
v 0.296268 0.364523 0.805121
v 0.156250 0.437500 0.648438
v -0.156250 0.437500 0.648438
v 0.351562 0.515625 0.617188
v -0.351562 0.515625 0.617188
v -0.293751 0.363527 0.805224
v -0.466618 0.309081 0.768140
v 0.546875 0.437500 0.578125
v -0.546875 0.437500 0.578125
v 0.633369 0.242106 0.566534
v -0.633263 0.242030 0.566494
v 0.467091 0.308394 0.768123
v -0.243136 0.183168 0.809604
v 0.411605 0.129821 0.794655
v -0.411605 0.129821 0.794655
v 0.000000 -0.187500 0.796875
v 0.000000 0.898438 -0.546875
v 0.000000 0.562500 -0.851562
v 0.000000 -0.382812 -0.351562
v -0.217374 -0.193599 0.520062
v 0.223095 -0.182572 0.537520
v -0.312500 -0.437500 0.570312
v -0.364485 -0.934935 0.527463
v 0.365799 -0.923413 0.528840
v 0.582274 -0.083975 0.538726
v -0.574942 -0.088264 0.540223
v 0.795853 0.151428 0.417778
v 0.841731 0.416465 0.572731
v -0.852831 0.421193 0.588270
v 0.253604 0.768544 0.746560
v -0.253433 0.768836 0.748109
v -0.000467 0.418818 0.744456
v 0.207694 0.152361 0.750915
v 0.404942 -0.022652 0.679367
v 0.611977 0.172832 0.665211
v 0.572695 0.365439 0.688196
v -0.261609 0.481956 0.761877
v 0.306832 0.476701 0.752781
v 0.000000 -0.195312 0.750000
v 0.000000 -0.140625 0.742188
v 0.109622 -0.127367 0.784855
v -0.539893 -0.002377 0.638478
v -0.730324 0.381592 0.681374
v 0.701861 0.406364 0.701875
v -0.248244 0.648821 0.854577
v 0.252976 0.656178 0.850654
v -0.006031 0.325982 0.829469
v -0.091305 -0.118257 0.792388
v 0.141460 -0.238190 0.733421
v 0.273289 -0.886184 0.648504
v -0.272967 -0.886192 0.649776
v 0.017284 -0.984477 0.591458
v -0.102173 0.130465 0.742287
v -0.130561 -0.226255 0.812502
v 0.031197 -0.157521 0.822140
v 0.130492 -0.225592 0.812825
v -0.003510 -0.332462 0.762465
v -0.138343 -0.242680 0.731990
v -0.071587 -0.872401 0.695822
v 0.081207 -0.860197 0.701942
v 0.065857 -0.759863 0.734646
v -0.098573 -0.730395 0.728907
v 0.093144 -0.792467 0.647164
v -0.065226 -0.852450 0.631841
v -0.233610 0.124430 0.754938
v -0.412973 0.388532 0.752534
v -0.574115 0.365077 0.686721
v -0.543159 0.212734 0.683209
v -0.460760 0.120128 0.707842
v -0.374026 0.085633 0.727129
v 0.198150 0.304100 0.760369
v -0.196071 0.294624 0.761091
v 0.293952 0.398592 0.778324
v 0.242188 0.125000 0.757812
v 0.373829 0.086535 0.728236
v 0.460938 0.117188 0.703125
v 0.546875 0.210938 0.671875
v -0.546850 0.292564 0.686891
v 0.551672 0.288132 0.675783
v 0.411560 0.390627 0.752042
v -0.280962 0.396572 0.770937
v -0.199861 0.172703 0.747545
v 0.053740 0.428979 0.616572
v -0.121205 0.483398 0.607582
v -0.261462 0.709033 0.606235
v 0.260303 0.708855 0.607407
v -0.457458 0.528564 0.474708
v -0.711654 0.400774 0.307327
v -0.803836 0.161472 0.420019
v -0.436074 -0.104066 0.453043
v 0.527753 -0.047276 0.450400
v 0.000000 0.898438 0.289062
v 0.000000 0.984375 -0.078125
v -0.011619 -0.075160 -0.779360
v -0.795840 0.041023 0.158112
v -0.831749 0.350337 -0.387405
v -0.490828 0.417757 -0.691108
v 0.814251 0.064879 0.177529
v 0.533910 0.047078 -0.538381
v -0.738105 -0.086049 -0.332369
v -0.214052 -0.410230 0.341908
v -0.322199 -0.914282 0.396656
v 0.321192 -0.910612 0.408725
v 0.000282 -0.495311 0.307091
v -0.027229 -0.950352 0.402103
v 0.199753 -0.398234 0.297475
v 0.347695 -0.237654 -0.431147
v 0.453125 0.867188 -0.382812
v -0.453125 0.867188 -0.382812
v -0.476077 0.899132 0.128827
v 0.465608 0.900982 0.152219
v 0.460237 0.527298 0.472638
v 0.717463 0.403459 0.312642
v -0.781498 0.576058 0.095848
v 0.781498 0.576058 0.095848
v 0.770823 0.623203 -0.342437
v -0.774117 0.618565 -0.345925
v 0.459720 0.411020 -0.709570
v -0.391690 -0.080613 -0.564660
v 0.838238 0.304138 -0.194035
v 0.539567 -0.142898 -0.158480
v -0.352624 -0.254787 -0.249850
v -0.637334 -0.131573 -0.129306
v -1.048997 -0.073373 -0.319236
v -1.315084 0.072190 -0.487198
v -1.363250 0.313430 -0.444733
v -1.210536 0.485920 -0.399701
v 0.925965 0.443705 -0.255477
v -0.980884 0.376460 -0.258508
v 1.207696 0.489413 -0.396355
v 1.234498 0.248681 -0.433467
v 1.238196 0.056204 -0.404615
v 1.037881 -0.075968 -0.309556
v 0.799217 -0.111136 -0.120197
v -0.845118 -0.049599 -0.146843
v 0.979674 0.377081 -0.259087
v 0.851778 -0.000411 -0.293091
v -1.042643 0.008610 -0.408010
v -1.189942 0.095613 -0.436225
v -1.233435 0.252704 -0.432477
v -1.170348 0.345691 -0.460999
v -0.957870 0.304972 -0.342476
v -0.795922 0.102855 -0.308274
v 0.790779 0.104465 -0.308961
v -0.712712 0.004226 -0.186871
v 0.709322 -0.014957 -0.168345
v -0.851212 0.363598 -0.191879
v 0.972471 0.311042 -0.359196
v -0.849688 -0.002268 -0.295795
v 1.170774 0.345162 -0.460286
v 1.142695 0.041631 -0.458032
v 1.059998 0.205557 -0.380618
v -1.074143 0.218953 -0.386767
v -1.223191 0.489490 -0.551496
v 1.227002 0.480829 -0.552827
v 1.363280 0.310916 -0.445376
v 1.225087 -0.009861 -0.547001
v -1.039062 -0.085938 -0.492188
v 0.789062 -0.125000 -0.328125
v 0.833846 0.352238 -0.391235
vt 0.900073 0.600696
vt 0.865294 0.596428
vt 0.920246 0.524366
vt 0.863045 0.814502
vt 0.897948 0.811769
vt 0.914742 0.888926
vt 0.798506 0.569552
vt 0.853018 0.521562
vt 0.795130 0.838386
vt 0.847458 0.888748
vt 0.860051 0.630865
vt 0.859266 0.779911
vt 0.842259 0.702752
vt 0.791018 0.645443
vt 0.897193 0.634433
vt 0.896148 0.777610
vt 0.844750 0.707253
vt 0.921180 0.713713
vt 0.968213 0.770220
vt 0.968392 0.573812
vt 0.543863 0.067902
vt 0.521557 0.052615
vt 0.553716 0.060540
vt 0.434535 0.380359
vt 0.424353 0.400567
vt 0.354303 0.320209
vt 0.438956 0.343010
vt 0.522030 0.346077
vt 0.540503 0.191708
vt 0.620264 0.234792
vt 0.576273 0.279231
vt 0.491024 0.260727
vt 0.512263 0.071869
vt 0.494152 0.067617
vt 0.527362 0.072921
vt 0.525584 0.085426
vt 0.548649 0.164348
vt 0.536374 0.175949
vt 0.501713 0.175938
vt 0.500449 0.191834
vt 0.489319 0.165782
vt 0.524426 0.185094
vt 0.519841 0.200843
vt 0.519132 0.185382
vt 0.517577 0.190607
vt 0.517872 0.153908
vt 0.508300 0.085721
vt 0.515782 0.075481
vt 0.523492 0.078282
vt 0.655324 0.271895
vt 0.612627 0.261471
vt 0.408797 0.269807
vt 0.391525 0.250158
vt 0.426270 0.263573
vt 0.391580 0.287347
vt 0.384364 0.312688
vt 0.413540 0.324355
vt 0.579590 0.310661
vt 0.603696 0.327778
vt 0.610356 0.339422
vt 0.439501 0.330982
vt 0.626943 0.320654
vt 0.649104 0.297577
vt 0.658692 0.310790
vt 0.390612 0.302821
vt 0.647785 0.283486
vt 0.629829 0.267263
vt 0.585166 0.270991
vt 0.492809 0.434538
vt 0.523776 0.386711
vt 0.537579 0.433356
vt 0.415857 0.430491
vt 0.350292 0.396229
vt 0.722013 0.261268
vt 0.766492 0.308454
vt 0.706787 0.311132
vt 0.643405 0.019704
vt 0.558356 0.053724
vt 0.539877 0.021327
vt 0.394896 0.019215
vt 0.511783 0.021558
vt 0.399481 0.082116
vt 0.484771 0.059936
vt 0.479748 0.053805
vt 0.645964 0.082889
vt 0.423174 0.158874
vt 0.370168 0.224481
vt 0.355825 0.196456
vt 0.823446 0.091731
vt 0.805584 0.010786
vt 0.923249 0.061717
vt 0.871997 0.327847
vt 0.962901 0.344752
vt 0.911671 0.402429
vt 0.907785 0.183317
vt 0.861899 0.236042
vt 0.836684 0.203906
vt 0.819308 0.278589
vt 0.208596 0.287729
vt 0.147220 0.341845
vt 0.159892 0.240546
vt 0.817923 0.457133
vt 0.763149 0.431455
vt 0.786595 0.369001
vt 0.279331 0.457858
vt 0.217614 0.477521
vt 0.249207 0.387964
vt 0.845499 0.449967
vt 0.314147 0.266573
vt 0.262597 0.316840
vt 0.259721 0.208047
vt 0.819338 0.213963
vt 0.203277 0.217482
vt 0.781780 0.141935
vt 0.681380 0.204344
vt 0.772331 0.210087
vt 0.854987 0.141773
vt 0.114059 0.179686
vt 0.107997 0.046395
vt 0.178798 0.107257
vt 0.162246 0.865651
vt 0.137396 0.774299
vt 0.185423 0.783182
vt 0.570175 0.788896
vt 0.554870 0.743561
vt 0.618903 0.781339
vt 0.317028 0.683005
vt 0.253991 0.699219
vt 0.357746 0.622754
vt 0.529470 0.751629
vt 0.504669 0.704045
vt 0.250224 0.735584
vt 0.213065 0.748785
vt 0.553337 0.819461
vt 0.591638 0.871934
vt 0.796877 0.178399
vt 0.245969 0.151002
vt 0.230248 0.179152
vt 0.436457 0.668277
vt 0.393069 0.690183
vt 0.391039 0.611891
vt 0.369361 0.696046
vt 0.392564 0.823320
vt 0.449530 0.870839
vt 0.455473 0.898043
vt 0.442893 0.725137
vt 0.316181 0.720208
vt 0.343481 0.856604
vt 0.332923 0.748250
vt 0.305456 0.861811
vt 0.425874 0.753736
vt 0.488922 0.822484
vt 0.507886 0.787834
vt 0.247626 0.786850
vt 0.202249 0.813929
vt 0.276772 0.817896
vt 0.661965 0.735554
vt 0.707492 0.759884
vt 0.742304 0.597357
vt 0.044323 0.542309
vt 0.106750 0.582589
vt 0.095807 0.725654
vt 0.183755 0.725412
vt 0.216123 0.678120
vt 0.568363 0.712314
vt 0.658213 0.585676
vt 0.484068 0.628776
vt 0.498072 0.552315
vt 0.791018 0.762238
vt 0.918898 0.699697
vt 0.968392 0.645333
vt 0.965038 0.841671
vt 0.611847 0.159877
vt 0.454527 0.108481
vt 0.667757 0.223502
vt 0.680013 0.320239
vt 0.330866 0.317147
vt 0.619594 0.396083
vt 0.609776 0.376532
vt 0.461186 0.311213
vt 0.455641 0.273153
vt 0.628962 0.425427
vt 0.461820 0.283719
vt 0.692106 0.388274
vt 0.734010 0.317916
vt 0.232648 0.003484
vt 0.246490 0.093280
vt 0.994525 0.167705
vt 0.915360 0.259804
vt 0.999856 0.254640
vt 0.011829 0.155367
vt 0.106400 0.432652
vt 0.043968 0.367038
vt 0.000144 0.259113
vt 0.098965 0.266968
vt 0.176788 0.196179
vt 0.196622 0.155241
vt 0.273470 0.604646
vt 0.049526 0.748824
vt 0.834578 0.206879
vn 0.7426 -0.1332 0.6563
vn -0.7425 -0.1307 0.6570
vn 0.4662 -0.7042 0.5356
vn -0.4662 -0.7042 0.5356
vn -0.1498 -0.6682 0.7288
vn 0.1472 -0.6689 0.7286
vn -0.6561 -0.3741 0.6555
vn -0.5826 0.1871 0.7909
vn 0.5878 0.1841 0.7878
vn 0.6212 0.3409 0.7056
vn 0.2249 0.7902 0.5701
vn 0.7806 0.3135 0.5408
vn 0.0846 -0.0029 0.9964
vn -0.0882 -0.0006 0.9961
vn 0.2335 0.0715 0.9697
vn -0.2310 0.0726 0.9702
vn 0.2318 -0.8636 0.4478
vn -0.5348 0.5477 0.6435
vn -0.4562 -0.4039 0.7929
vn -0.0470 -0.4822 0.8748
vn 0.3377 -0.0042 0.9412
vn -0.0370 0.1331 0.9904
vn -0.1070 -0.7217 0.6839
vn 0.2238 -0.2709 0.9362
vn 0.3572 -0.0496 0.9327
vn 0.9676 0.2331 0.0967
vn -0.9384 0.3449 0.0203
vn -0.2234 0.9324 0.2842
vn -1.0000 0.0000 0.0000
vn 0.4777 0.6670 0.5717
vn -0.5745 -0.7893 0.2166
vn -0.1167 -0.2998 0.9468
vn 0.0874 -0.3371 0.9374
vn -0.3458 -0.1307 0.9291
vn 0.5085 0.1913 0.8396
vn 0.9777 0.1521 0.1446
vn -0.1785 -0.9389 0.2942
vn 0.1470 -0.5908 0.7933
vn 0.3442 -0.3001 0.8896
vn -0.3198 -0.3019 0.8981
vn -0.4681 -0.1867 0.8637
vn -0.3835 0.5470 0.7441
vn -0.4886 0.3429 0.8023
vn -0.1449 0.1368 0.9799
vn 0.3259 -0.2356 0.9156
vn -0.1452 -0.0523 0.9880
vn 0.1879 0.1513 0.9705
vn -0.3390 -0.6083 -0.7177
vn 0.2823 0.9395 0.1943
vn -0.5263 0.7938 -0.3048
vn 0.8960 0.0981 -0.4330
vn 0.0422 -0.2067 -0.9775
vn -0.2289 -0.1857 -0.9556
vn -0.1157 -0.9747 -0.1913
vn 0.9320 0.1492 -0.3302
vn -0.9449 0.1725 -0.2782
vn 0.0504 -0.2005 -0.9784
vn -0.2855 -0.9137 -0.2891
vn 0.1993 -0.7930 -0.5757
vn 0.0615 0.9718 0.2275
vn 0.6474 0.2784 -0.7095
vn 0.7208 0.6909 0.0568
vn -0.7284 0.6831 0.0536
vn -0.3761 0.2484 -0.8926
vn 0.3843 0.2336 -0.8932
vn 0.1411 0.5854 0.7983
vn -0.9440 0.2878 -0.1612
vn 0.9786 0.2060 -0.0017
vn -0.9550 0.2964 0.0126
vn 0.9748 0.2209 0.0322
vn 0.5292 -0.8449 -0.0788
vn 0.4776 -0.8665 0.1453
vn -0.4454 -0.5728 0.6882
vn 0.6088 -0.2327 -0.7584
vn -0.4653 -0.3035 -0.8315
vn -0.1502 -0.1231 0.9810
vn 0.0196 0.1486 0.9887
vn -0.3508 -0.7774 0.5221
vn -0.3580 0.8383 0.4113
vn 0.2834 0.6943 0.6615
vn -0.6075 -0.1867 0.7720
vn 0.6019 -0.7985 0.0017
vn -0.8375 -0.5266 -0.1456
vn -0.1753 0.3048 0.9361
vn 0.0951 0.4328 0.8965
vn 0.9056 -0.3809 -0.1868
vn 0.3188 0.2069 0.9250
vn 0.4334 0.6933 0.5758
vn -0.2806 0.9122 0.2985
vn -0.8817 -0.3352 0.3320
vn -0.4443 -0.4421 0.7792
vn -0.9165 -0.3558 -0.1829
vn 0.7476 -0.5779 0.3274
vn 0.1644 0.2404 0.9567
vn 0.2526 0.0131 0.9675
vn 0.5039 -0.1477 0.8511
vn -0.5029 -0.1611 0.8492
vn 0.3378 -0.2572 0.9054
vn 0.1831 0.3737 0.9093
vn -0.1750 0.3953 0.9017
vn 0.4239 0.1711 0.8894
vn -0.4559 0.1661 0.8744
vn 0.7604 0.6468 0.0583
vn -0.1975 0.9772 -0.0780
vn 0.3457 0.9379 -0.0292
vn -0.0932 -0.1315 -0.9869
vn 0.6100 -0.0118 -0.7923
vn -0.6180 0.0150 -0.7860
vn 0.5612 -0.1600 -0.8120
vn 0.7534 -0.3119 0.5789
vn -0.7536 -0.3115 0.5789
vn -0.2558 -0.6822 0.6849
vn 0.2566 -0.6836 0.6833
vn 0.6591 -0.3732 0.6529
vn -0.6158 0.3422 0.7097
vn -0.2251 0.7906 0.5694
vn -0.3744 0.6740 0.6368
vn 0.8637 0.1381 0.4847
vn -0.7806 0.3128 0.5411
vn -0.1919 -0.8538 0.4839
vn -0.7506 0.0505 0.6588
vn 0.3289 -0.8078 0.4891
vn -0.3053 -0.8175 0.4884
vn 0.6832 -0.4166 0.5998
vn 0.4628 -0.4342 0.7729
vn 0.7309 -0.3677 0.5750
vn -0.7181 -0.3765 0.5853
vn -0.6923 -0.4441 0.5688
vn 0.5288 0.5777 0.6218
vn -0.6892 0.5022 0.5223
vn -0.4558 0.4267 0.7812
vn 0.6890 0.4840 0.5394
vn 0.3550 -0.2837 0.8908
vn 0.0324 -0.4601 0.8873
vn -0.1373 -0.1415 0.9804
vn -0.0730 -0.3939 0.9162
vn -0.0633 -0.1310 0.9894
vn 0.1117 -0.2922 0.9498
vn -0.2779 0.1780 0.9440
vn -0.3193 -0.1157 0.9406
vn 0.0724 -0.6832 0.7266
vn -0.2864 -0.2692 0.9195
vn -0.3277 -0.0327 0.9442
vn -0.1985 -0.2580 0.9455
vn 0.0856 -0.0509 0.9950
vn -0.2240 0.8002 0.5563
vn -0.7825 0.4728 0.4052
vn 0.5621 -0.8013 0.2048
vn 0.3319 0.3817 -0.8627
vn 0.3036 0.3201 0.8974
vn -0.1573 0.2358 0.9590
vn -0.8228 0.4034 0.4003
vn 0.9126 0.0757 0.4018
vn -0.9118 0.1615 0.3774
vn 0.0964 -0.7895 0.6061
vn -0.9589 -0.0560 -0.2782
vn 0.0983 -0.0576 0.9935
vn -0.0418 -0.4181 0.9075
vn -0.0201 -0.1017 0.9946
vn 0.3880 0.4652 0.7956
vn 0.1876 0.0615 0.9803
vn 0.2274 0.2686 0.9360
vn -0.3582 -0.1325 0.9242
vn -0.7759 0.5645 -0.2817
vn -0.4016 0.8372 -0.3711
vn -0.3654 0.1140 -0.9238
vn 0.7734 0.5297 -0.3482
vn 0.3461 0.8667 -0.3593
vn 0.5109 0.7987 -0.3180
vn -0.3407 0.8651 -0.3682
vn 0.1262 -0.9748 -0.1842
vn -0.8826 0.1268 -0.4527
vn 0.4463 -0.6947 -0.5641
vn -0.4420 -0.6843 -0.5800
vn 0.3788 0.6735 0.6347
vn -0.1019 -0.9829 -0.1532
vn -0.3467 -0.7975 -0.4938
vn 0.0050 -0.1090 -0.9940
vn 0.9479 0.1856 -0.2589
vn -0.9162 0.1284 -0.3796
vn -0.8942 0.2761 -0.3524
vn 0.2320 -0.8392 -0.4919
vn 0.4372 -0.5530 -0.7092
vn 0.3818 -0.9137 -0.1392
vn -0.3798 -0.9123 -0.1533
vn 0.3436 -0.2014 -0.9173
vn 0.5898 -0.7443 0.3133
vn -0.5722 -0.7516 0.3282
vn 0.1730 0.9777 -0.1188
vn -0.2815 -0.1029 -0.9540
vn -0.0751 0.9709 0.2272
vn -0.1711 0.9777 -0.1216
vn 0.3608 0.5832 -0.7278
vn -0.3591 0.5849 -0.7273
vn 0.6223 0.5073 0.5962
vn -0.6710 0.2520 -0.6973
vn 0.4847 0.5140 -0.7078
vn -0.4849 0.5220 -0.7017
vn 0.6129 0.7875 -0.0640
vn -0.6160 0.7840 -0.0766
vn -0.6223 0.5076 0.5959
vn 0.1754 0.6026 0.7786
vn -0.2265 0.6460 0.7289
vn 0.9723 0.0963 0.2129
vn 0.9579 0.2856 -0.0295
vn -0.9626 0.0566 0.2649
vn -0.4203 -0.8879 0.1872
vn -0.9679 0.2252 -0.1116
vn -0.8036 -0.5944 0.0320
vn 0.6489 -0.7172 0.2542
vn -0.5745 -0.2686 -0.7732
vn -0.3305 -0.8976 -0.2916
vn -0.2606 -0.1702 0.9503
vn 0.7376 -0.5994 -0.3107
vn 0.3950 0.2709 0.8778
vn -0.4259 0.2338 0.8740
vn 0.1551 -0.1336 0.9788
vn 0.3347 0.6830 0.6492
vn -0.4060 0.2666 0.8741
vn 0.5395 -0.5853 0.6053
vn -0.5395 0.6375 0.5501
vn -0.4985 0.1191 0.8587
vn 0.6017 -0.1688 0.7807
vn -0.5503 -0.5778 0.6027
vn -0.2479 0.0596 0.9669
vn 0.5674 0.4357 0.6987
vn -0.5857 0.3843 0.7136
vn 0.9086 -0.3485 0.2303
vn 0.5622 -0.5088 0.6519
vn -0.7724 -0.5723 0.2755
vn -0.1235 0.9446 0.3040
vn 0.1959 -0.9799 -0.0371
vn -0.2632 -0.1359 0.9551
vn -0.2947 -0.1042 0.9499
vn -0.0439 -0.9961 -0.0767
vn -0.4055 -0.0455 -0.9129
vn 0.6182 -0.7332 0.2833
vn -0.4963 -0.8675 0.0345
vn 0.8989 -0.4232 0.1136
vn -0.7565 0.6493 0.0783
vn 0.3248 0.9458 -0.0048
vn -0.4068 0.8613 -0.3043
vn 0.4261 0.0148 -0.9045
vn -0.1233 -0.9515 -0.2818
vn -0.8032 0.5744 0.1580
usemtl None
s off
f 21/1/1 23/2/1 19/3/1
f 24/4/2 16/5/2 20/6/2
f 23/2/3 4/7/3 1/8/3
f 3/9/4 24/4/4 2/10/4
f 23/2/5 5/11/5 4/7/5
f 22/12/6 24/4/6 3/9/6
f 9/13/7 6/14/7 5/11/7
f 5/11/8 10/15/8 9/13/8
f 15/16/9 22/12/9 8/17/9
f 15/16/10 8/17/10 12/18/10
f 15/16/11 12/18/11 14/19/11
f 19/3/12 17/20/12 21/1/12
f 23/2/13 10/15/13 5/11/13
f 22/12/14 15/16/14 24/4/14
f 23/2/15 21/1/15 10/15/15
f 15/16/16 16/5/16 24/4/16
f 59/21/17 61/22/17 33/23/17
f 54/24/18 40/25/18 52/26/18
f 46/27/19 56/28/19 54/24/19
f 52/26/20 46/27/20 54/24/20
f 50/29/21 43/30/21 42/31/21
f 42/31/22 62/32/22 50/29/22
f 61/22/23 68/33/23 60/34/23
f 69/35/24 59/21/24 70/36/24
f 58/37/25 70/36/25 59/21/25
f 50/29/26 65/38/26 58/37/26
f 63/39/27 57/40/27 67/41/27
f 64/42/28 50/29/28 49/43/28
f 25/44/29 49/43/29 48/45/29
f 25/44/30 49/43/30 57/40/30
f 67/41/31 66/46/31 63/39/31
f 64/42/32 66/46/32 65/38/32
f 66/46/33 64/42/33 63/39/33
f 49/43/34 50/29/34 62/32/34
f 57/40/35 49/43/35 62/32/35
f 71/47/36 68/33/36 73/48/36
f 70/36/37 71/47/37 72/49/37
f 73/48/38 72/49/38 71/47/38
f 43/30/39 44/50/39 84/51/39
f 78/52/40 51/53/40 79/54/40
f 77/55/41 51/53/41 78/52/41
f 46/27/42 76/56/42 75/57/42
f 80/58/43 82/59/43 47/60/43
f 46/27/44 75/57/44 90/61/44
f 89/62/45 88/63/45 45/64/45
f 76/56/46 77/55/46 87/65/46
f 44/50/47 86/66/47 85/67/47
f 84/51/48 83/68/48 42/31/48
f 93/69/49 41/70/49 92/71/49
f 40/25/50 94/72/50 96/73/50
f 36/74/51 122/75/51 37/76/51
f 113/77/52 112/78/52 114/79/52
f 113/80/53 114/81/53 110/82/53
f 114/81/54 32/83/54 111/84/54
f 33/23/55 112/78/55 115/85/55
f 111/84/56 32/83/56 110/82/56
f 112/78/57 113/77/57 115/85/57
f 29/86/58 35/87/58 99/88/58
f 116/89/59 28/90/59 103/91/59
f 120/92/60 102/93/60 101/94/60
f 127/95/61 125/96/61 169/97/61
f 120/92/62 124/98/62 125/96/62
f 123/99/63 119/100/63 126/101/63
f 92/102/64 95/103/64 121/104/64
f 94/105/65 93/106/65 96/107/65
f 92/102/66 121/104/66 93/108/66
f 98/109/67 97/110/67 104/111/67
f 129/112/68 125/96/68 124/98/68
f 126/101/69 156/113/69 123/99/69
f 125/96/70 129/112/70 169/97/70
f 116/89/71 130/114/71 115/85/71
f 100/115/72 130/114/72 107/116/72
f 99/88/73 110/82/73 29/86/73
f 108/117/74 127/95/74 169/97/74
f 106/118/75 103/119/75 128/120/75
f 136/121/76 135/122/76 149/123/76
f 140/124/77 141/125/77 165/126/77
f 144/127/78 133/128/78 132/129/78
f 141/125/79 160/130/79 142/131/79
f 147/132/80 148/133/80 133/128/80
f 159/134/81 140/124/81 139/135/81
f 130/114/82 155/136/82 107/116/82
f 132/137/83 104/111/83 154/138/83
f 143/139/84 155/140/84 130/141/84
f 132/129/85 154/142/85 144/127/85
f 107/116/86 155/136/86 129/112/86
f 129/143/87 145/144/87 137/145/87
f 143/139/88 146/146/88 155/140/88
f 158/147/89 144/127/89 154/142/89
f 156/148/90 152/149/90 154/142/90
f 156/148/91 138/150/91 152/149/91
f 104/111/92 156/113/92 154/138/92
f 153/151/93 157/152/93 145/144/93
f 146/146/94 161/153/94 153/151/94
f 153/151/95 161/153/95 157/152/95
f 160/130/96 161/153/96 146/146/96
f 162/154/97 147/132/97 158/147/97
f 161/153/98 160/130/98 140/124/98
f 159/134/99 161/153/99 140/124/99
f 162/154/100 150/155/100 149/123/100
f 157/152/101 161/153/101 159/134/101
f 150/155/102 162/154/102 151/156/102
f 165/126/103 164/157/103 139/158/103
f 139/158/104 164/157/104 137/159/104
f 156/160/105 105/161/105 163/162/105
f 134/163/106 163/162/106 167/164/106
f 164/157/107 165/126/107 166/165/107
f 134/163/108 135/122/108 163/162/108
f 169/166/109 168/167/109 108/168/109
f 19/3/110 23/2/110 1/8/110
f 2/10/111 24/4/111 20/6/111
f 4/7/112 5/11/112 6/14/112
f 7/169/113 22/12/113 3/9/113
f 8/17/114 22/12/114 7/169/114
f 10/15/115 11/170/115 9/13/115
f 10/15/116 13/171/116 11/170/116
f 14/19/117 18/172/117 16/5/117 15/16/117
f 59/21/118 33/23/118 30/173/118 58/37/118
f 20/6/119 16/5/119 18/172/119
f 60/34/120 32/83/120 61/22/120
f 31/174/121 32/83/121 60/34/121 67/41/121
f 43/30/122 50/29/122 30/173/122 34/175/122
f 29/86/123 57/40/123 51/53/123 35/87/123
f 44/50/124 36/74/124 37/76/124 53/176/124
f 34/175/125 44/50/125 43/30/125
f 34/175/126 36/74/126 44/50/126
f 51/53/127 98/109/127 35/87/127
f 51/53/128 52/26/128 38/177/128 98/109/128
f 53/176/129 37/76/129 39/178/129 55/179/129
f 55/179/130 39/178/130 41/70/130 56/28/130
f 40/25/131 38/177/131 52/26/131
f 54/24/132 56/28/132 41/70/132 40/25/132
f 56/28/133 80/58/133 47/60/133 55/179/133
f 47/60/134 45/64/134 53/176/134 55/179/134
f 76/56/135 52/26/135 51/53/135 77/55/135
f 52/26/136 76/56/136 46/27/136
f 44/50/137 53/176/137 45/64/137
f 62/32/138 42/31/138 80/58/138 56/28/138
f 57/40/139 62/32/139 51/53/139
f 56/28/140 46/27/140 81/180/140
f 61/22/141 59/21/141 69/35/141 68/33/141
f 62/32/142 56/28/142 81/180/142
f 67/41/143 60/34/143 71/47/143 66/46/143
f 68/33/144 71/47/144 60/34/144
f 71/47/145 70/36/145 58/37/145 66/46/145
f 73/48/146 68/33/146 69/35/146 72/49/146
f 25/44/147 64/42/147 49/43/147
f 58/37/148 65/38/148 66/46/148
f 57/40/149 64/42/149 25/44/149
f 65/38/150 50/29/150 64/42/150
f 63/39/151 64/42/151 57/40/151
f 29/86/152 31/174/152 67/41/152
f 30/173/153 50/29/153 58/37/153
f 67/41/154 57/40/154 29/86/154
f 62/32/155 74/181/155 79/54/155 51/53/155
f 69/35/156 70/36/156 72/49/156
f 74/181/157 62/32/157 81/180/157
f 42/31/158 43/30/158 84/51/158
f 86/66/159 44/50/159 45/64/159 88/63/159
f 47/60/160 89/62/160 45/64/160
f 81/180/161 46/27/161 90/61/161
f 47/60/162 82/59/162 89/62/162
f 75/57/163 76/56/163 87/65/163
f 95/182/164 92/71/164 41/70/164 39/178/164
f 44/50/165 85/67/165 84/51/165
f 91/183/166 74/181/166 81/180/166
f 41/70/167 93/69/167 94/72/167 40/25/167
f 121/184/168 39/178/168 37/76/168 122/185/168
f 39/178/169 121/184/169 95/182/169
f 96/73/170 97/110/170 38/177/170 40/25/170
f 114/81/171 112/78/171 33/23/171 61/22/171
f 98/109/172 38/177/172 97/110/172
f 36/74/173 34/175/173 100/115/173
f 99/88/174 35/87/174 98/109/174
f 13/171/175 10/15/175 21/1/175 17/20/175
f 114/81/176 61/22/176 32/83/176
f 28/186/177 131/187/177 128/120/177 103/119/177
f 110/82/178 114/81/178 111/84/178
f 30/173/179 33/23/179 115/85/179
f 110/82/180 32/83/180 31/174/180
f 110/82/181 31/174/181 29/86/181
f 30/173/182 100/115/182 34/175/182
f 108/117/183 116/89/183 103/91/183
f 115/85/184 113/77/184 28/90/184 116/89/184
f 28/186/185 113/80/185 110/82/185 131/187/185
f 103/91/186 27/188/186 127/95/186 108/117/186
f 36/74/187 100/115/187 107/116/187
f 104/111/188 99/88/188 98/109/188
f 117/189/189 26/190/189 102/93/189 120/92/189
f 106/118/190 27/191/190 103/119/190
f 119/100/191 101/192/191 102/193/191
f 102/193/192 26/194/192 118/195/192 119/100/192
f 127/95/193 27/188/193 26/190/193 117/189/193
f 26/194/194 27/191/194 106/118/194 118/195/194
f 122/75/195 124/98/195 120/92/195 121/104/195
f 106/118/196 105/196/196 126/101/196
f 127/95/197 117/189/197 125/96/197
f 126/101/198 118/195/198 106/118/198
f 117/189/199 120/92/199 125/96/199
f 126/101/200 119/100/200 118/195/200
f 119/100/201 123/99/201 97/110/201 96/107/201
f 101/94/202 93/108/202 121/104/202 120/92/202
f 101/192/203 119/100/203 96/107/203 93/106/203
f 124/98/204 122/75/204 107/116/204 129/112/204
f 36/74/205 107/116/205 122/75/205
f 104/111/206 97/110/206 123/99/206 156/113/206
f 132/137/207 131/187/207 99/88/207 104/111/207
f 126/101/208 105/196/208 156/113/208
f 131/187/209 110/82/209 99/88/209
f 115/85/210 130/114/210 100/115/210 30/173/210
f 106/118/211 128/120/211 109/197/211 105/196/211
f 109/197/212 128/120/212 131/187/212 132/137/212
f 134/163/213 148/133/213 149/123/213 135/122/213
f 116/89/214 108/117/214 130/114/214
f 137/145/215 145/144/215 139/135/215
f 136/121/216 138/150/216 156/148/216
f 139/135/217 140/124/217 165/126/217
f 146/146/218 143/139/218 142/131/218 160/130/218
f 148/133/219 134/163/219 133/128/219
f 139/135/220 145/144/220 157/152/220 159/134/220
f 144/127/221 147/132/221 133/128/221
f 140/124/222 160/130/222 141/125/222
f 150/155/223 136/121/223 149/123/223
f 136/121/224 150/155/224 151/156/224 138/150/224
f 151/156/225 162/154/225 158/147/225 152/149/225
f 153/151/226 155/140/226 146/146/226
f 158/147/227 154/142/227 152/149/227
f 129/143/228 155/140/228 153/151/228
f 129/143/229 153/151/229 145/144/229
f 152/149/230 138/150/230 151/156/230
f 147/132/231 144/127/231 158/147/231
f 168/167/232 166/165/232 142/131/232 143/139/232
f 162/154/233 148/133/233 147/132/233
f 162/154/234 149/123/234 148/133/234
f 133/128/235 167/164/235 109/198/235 132/129/235
f 169/166/236 164/157/236 166/165/236 168/167/236
f 141/125/237 142/131/237 166/165/237
f 167/164/238 133/128/238 134/163/238
f 141/125/239 166/165/239 165/126/239
f 135/122/240 136/199/240 163/162/240
f 136/199/241 156/160/241 163/162/241
f 137/159/242 164/157/242 169/166/242
f 105/161/243 109/198/243 167/164/243 163/162/243
f 168/167/244 143/139/244 130/141/244 108/168/244
f 129/112/245 137/200/245 169/97/245
